<svg width="23" height="20" viewBox="0 0 23 20" fill="none" xmlns="http://www.w3.org/2000/svg">
<path d="M2.5 20C1.95 20 1.479 19.804 1.087 19.412C0.695002 19.02 0.499335 18.5493 0.500002 18V6C0.500002 5.45 0.696002 4.979 1.088 4.587C1.48 4.195 1.95067 3.99933 2.5 4H5.65L7.5 2H13.5V6H16.5V9H20.5V18C20.5 18.55 20.304 19.021 19.912 19.413C19.52 19.805 19.0493 20.0007 18.5 20H2.5ZM10.5 16.5C11.75 16.5 12.8127 16.0623 13.688 15.187C14.5633 14.3117 15.0007 13.2493 15 12C15 10.75 14.5623 9.68733 13.687 8.812C12.8117 7.93667 11.7493 7.49933 10.5 7.5C9.25 7.5 8.18734 7.93767 7.312 8.813C6.43667 9.68833 5.99934 10.7507 6 12C6 13.25 6.43767 14.3127 7.313 15.188C8.18834 16.0633 9.25067 16.5007 10.5 16.5ZM10.5 14.5C9.8 14.5 9.20834 14.2583 8.725 13.775C8.24167 13.2917 8 12.7 8 12C8 11.3 8.24167 10.7083 8.725 10.225C9.20834 9.74167 9.8 9.5 10.5 9.5C11.2 9.5 11.7917 9.74167 12.275 10.225C12.7583 10.7083 13 11.3 13 12C13 12.7 12.7583 13.2917 12.275 13.775C11.7917 14.2583 11.2 14.5 10.5 14.5ZM18.5 6V4H16.5V2H18.5V0H20.5V2H22.5V4H20.5V6H18.5Z" fill="#F1F1F1" fill-opacity="0.8"/>
</svg>
