<svg width="13" height="13" viewBox="0 0 13 13" fill="none" xmlns="http://www.w3.org/2000/svg">
<path d="M12.5 12.5H12.1C10.4559 12.4999 8.86688 11.9072 7.62438 10.8305L7.2037 10.4658C6.97035 10.4886 6.7344 10.5 6.5 10.5C4.91183 10.5 3.41537 9.98923 2.2863 9.06178C1.13438 8.11558 0.5 6.85063 0.5 5.5C0.5 4.14937 1.13438 2.88443 2.2863 1.93823C3.41537 1.01078 4.91183 0.5 6.5 0.5C8.08817 0.5 9.58463 1.01078 10.7137 1.93823C11.8656 2.88443 12.5 4.14937 12.5 5.5C12.4994 6.21796 12.3182 6.92423 11.9731 7.55378C11.6735 8.10207 11.2745 8.58984 10.7965 8.9922C11.1537 9.90059 11.6936 10.726 12.3828 11.4172L12.5 11.5343V12.5ZM7.4614 9.63055L8.14833 10.2259C9.09575 11.0469 10.2754 11.5525 11.5233 11.6724C10.8348 10.9028 10.303 10.0061 9.9579 9.03282L9.84803 8.72125L10.0782 8.54455C11.1241 7.74195 11.7 6.66073 11.7 5.5C11.7 3.1841 9.36728 1.3 6.5 1.3C3.63273 1.3 1.3 3.1841 1.3 5.5C1.3 7.8159 3.63273 9.7 6.5 9.7C6.76239 9.69997 7.02454 9.684 7.285 9.65217L7.4614 9.63055Z" fill="#F1F1F1" fill-opacity="0.8"/>
</svg>
