<svg width="12" height="13" viewBox="0 0 12 13" fill="none" xmlns="http://www.w3.org/2000/svg">
<path d="M9.80233 8.70026C9.51128 8.70031 9.22415 8.7673 8.96313 8.89605C8.70212 9.02481 8.47421 9.21188 8.29706 9.4428L4.19878 7.11678C4.33649 6.71723 4.33649 6.28308 4.19878 5.88352L8.29706 3.55751C8.58312 3.92866 8.99635 4.1809 9.45721 4.26569C9.91807 4.35049 10.394 4.26185 10.7935 4.01683C11.1929 3.77181 11.4876 3.38772 11.6209 2.93847C11.7541 2.48922 11.7166 2.00655 11.5154 1.58335C11.3142 1.16014 10.9635 0.826299 10.531 0.646058C10.0984 0.465817 9.61452 0.451913 9.17234 0.607022C8.73015 0.76213 8.36095 1.07529 8.13578 1.48625C7.91061 1.8972 7.84538 2.37691 7.95264 2.83307L3.78453 5.19874C3.52371 4.92128 3.18554 4.72859 2.81387 4.64566C2.44221 4.56273 2.0542 4.5934 1.70017 4.73367C1.34614 4.87395 1.04243 5.11736 0.828426 5.43234C0.614422 5.74733 0.5 6.11935 0.5 6.50015C0.5 6.88096 0.614422 7.25298 0.828426 7.56796C1.04243 7.88295 1.34614 8.12636 1.70017 8.26664C2.0542 8.40691 2.44221 8.43757 2.81387 8.35465C3.18554 8.27172 3.52371 8.07903 3.78453 7.80157L7.95266 10.1673C7.86281 10.5513 7.89468 10.9537 8.04387 11.3188C8.19306 11.6839 8.45216 11.9935 8.78524 12.2047C9.11832 12.4159 9.50886 12.5181 9.9027 12.4974C10.2965 12.4766 10.6741 12.3337 10.9831 12.0887C11.2921 11.8436 11.5172 11.5084 11.6271 11.1297C11.7371 10.7509 11.7264 10.3473 11.5966 9.97493C11.4668 9.60251 11.2244 9.27971 10.9029 9.05131C10.5813 8.8229 10.1967 8.70021 9.80233 8.70026ZM9.80233 1.2999C10.0199 1.2999 10.2326 1.36442 10.4135 1.48529C10.5944 1.60617 10.7354 1.77797 10.8186 1.97898C10.9019 2.17999 10.9237 2.40117 10.8812 2.61456C10.8388 2.82795 10.734 3.02396 10.5802 3.17781C10.4263 3.33165 10.2303 3.43642 10.0169 3.47887C9.80355 3.52132 9.58237 3.49953 9.38136 3.41627C9.18035 3.33301 9.00854 3.19201 8.88767 3.01111C8.76679 2.83021 8.70228 2.61752 8.70228 2.39995C8.7026 2.1083 8.8186 1.82869 9.02483 1.62246C9.23106 1.41623 9.51068 1.30022 9.80233 1.2999ZM2.40197 7.60021C2.1844 7.60021 1.97171 7.53569 1.79081 7.41482C1.60991 7.29394 1.46891 7.12214 1.38565 6.92113C1.30239 6.72012 1.2806 6.49893 1.32305 6.28554C1.3655 6.07215 1.47027 5.87614 1.62411 5.7223C1.77796 5.56845 1.97397 5.46368 2.18736 5.42124C2.40075 5.37879 2.62193 5.40058 2.82294 5.48384C3.02395 5.5671 3.19575 5.70809 3.31663 5.889C3.4375 6.0699 3.50202 6.28258 3.50202 6.50015C3.5017 6.79181 3.38569 7.07142 3.17946 7.27765C2.97323 7.48388 2.69362 7.59988 2.40197 7.60021ZM9.80233 11.7004C9.58476 11.7004 9.37208 11.6359 9.19117 11.515C9.01027 11.3941 8.86927 11.2223 8.78601 11.0213C8.70275 10.8203 8.68097 10.5991 8.72341 10.3857C8.76586 10.1724 8.87063 9.97635 9.02448 9.8225C9.17832 9.66865 9.37433 9.56388 9.58772 9.52144C9.80111 9.47899 10.0223 9.50078 10.2233 9.58404C10.4243 9.6673 10.5961 9.8083 10.717 9.9892C10.8379 10.1701 10.9024 10.3828 10.9024 10.6004C10.9021 10.892 10.7861 11.1716 10.5798 11.3779C10.3736 11.5841 10.094 11.7001 9.80233 11.7004Z" fill="#F1F1F1" fill-opacity="0.8"/>
</svg>
